Coordinates
version=1
nRows=17
nColumns=40
inDegrees=yes

Units are S.I. units (second, meters, Newtons, ...)
Angles are in degrees.

endheader
time	pelvis_tilt	pelvis_list	pelvis_rotation	pelvis_tx	pelvis_ty	pelvis_tz	hip_flexion_r	hip_adduction_r	hip_rotation_r	knee_angle_r	knee_angle_r_beta	ankle_angle_r	subtalar_angle_r	mtp_angle_r	hip_flexion_l	hip_adduction_l	hip_rotation_l	knee_angle_l	knee_angle_l_beta	ankle_angle_l	subtalar_angle_l	mtp_angle_l	lumbar_extension	lumbar_bending	lumbar_rotation	arm_flex_r	arm_add_r	arm_rot_r	elbow_flex_r	pro_sup_r	wrist_flex_r	wrist_dev_r	arm_flex_l	arm_add_l	arm_rot_l	elbow_flex_l	pro_sup_l	wrist_flex_l	wrist_dev_l
     42.21000000	     -5.38343936	     -4.09947153	     -4.39272256	      1.05740012	      0.93281339	      0.45022330	     33.80234415	     -5.84456766	     -4.15386806	     70.19999781	     70.19999781	     -6.17288906	    -16.67964121	      2.26303847	     13.23220709	     -3.93416215	     -4.93935385	     21.14362855	     21.14362855	     15.08929161	    -13.26923338	      4.81000047	    -12.14924401	      6.93045169	      3.67404971	      2.73183164	    -16.74079359	    -19.00006404	     62.48427267	     45.45151779	      0.00000000	      0.00000000	      4.73986753	    -20.26050434	      1.55158248	     89.80369359	     47.39555095	      0.00000000	      0.00000000
     42.22185714	     -5.41089681	     -4.31395025	     -4.57141233	      1.05600648	      0.93318043	      0.45028180	     35.16995754	     -5.53609319	     -5.01641466	     68.53102643	     68.53102643	     -5.52955421	    -17.44751314	      1.57723400	     12.48739727	     -4.14626416	     -5.08455088	     20.75690668	     20.75690668	     15.42420902	    -13.04560873	      4.74239830	    -12.26248449	      7.11981601	      3.73838718	      2.30727054	    -16.45089334	    -19.19852132	     57.86453079	     45.62107506	      0.00000000	      0.00000000	      6.44754945	    -20.58929765	      1.58933493	     92.14503152	     47.49163542	      0.00000000	      0.00000000
     42.23371429	     -5.41876362	     -4.55505461	     -4.73903623	      1.05467115	      0.93354032	      0.45035801	     36.32696376	     -5.16276277	     -5.89695754	     66.57430546	     66.57430546	     -4.60918901	    -17.88726309	      2.00258264	     11.72278490	     -4.38309516	     -5.22331902	     20.36126387	     20.36126387	     15.66627498	    -12.87513702	      4.53580539	    -12.38560587	      7.33205451	      3.55246863	      2.37802770	    -16.18716464	    -19.09433250	     52.64278967	     45.80020248	      0.00000000	      0.00000000	      7.98316263	    -20.77342626	      1.01501756	     94.42848170	     47.63690669	      0.00000000	      0.00000000
     42.24557143	     -5.41790030	     -4.82062302	     -4.88704864	      1.05343535	      0.93384409	      0.45048616	     37.23182830	     -4.72360474	     -6.76932873	     64.23957707	     64.23957707	     -3.76617061	    -18.15035076	      2.33494336	     10.95055311	     -4.63169843	     -5.28578670	     19.96877177	     19.96877177	     15.93402717	    -12.75461706	      4.47629396	    -12.60620069	      7.65287062	      3.76553581	      1.13621952	    -16.09108869	    -18.91967987	     50.70708523	     45.85502143	      0.00000000	      0.00000000	      9.90158089	    -20.64123641	      0.44821073	     96.19606608	     47.72411138	      0.00000000	      0.00000000
     42.25742857	     -5.45359745	     -5.00611506	     -5.08299241	      1.05224478	      0.93399152	      0.45088113	     38.06718371	     -4.21669058	     -7.42727641	     61.68998770	     61.68998770	     -2.65400742	    -18.14431817	      3.82325931	     10.23537766	     -4.86466915	     -5.63542547	     19.61023568	     19.61023568	     16.14421447	    -12.37905402	      3.98414851	    -12.62801527	      7.73107320	      3.49375338	      2.32727967	    -15.79008814	    -18.40321870	     43.28451009	     46.10150943	      0.00000000	      0.00000000	     11.42033754	    -21.04020597	      0.36224555	     98.19792782	     47.82668360	      0.00000000	      0.00000000
     42.26928571	     -5.46342450	     -5.15269698	     -5.25315592	      1.05122056	      0.93406885	      0.45129568	     38.61367167	     -3.71072444	     -7.99437369	     58.69804922	     58.69804922	     -1.89820012	    -18.00270459	      4.21170874	      9.47001951	     -5.01552236	     -5.82099014	     19.20759318	     19.20759318	     16.38826794	    -12.15316449	      3.80659430	    -12.79299963	      7.85031378	      3.61446055	      1.63772801	    -15.55383165	    -18.05988338	     40.74218001	     46.17062183	      0.00000000	      0.00000000	     13.14446998	    -20.78997428	     -0.41344887	    100.05083557	     47.93906742	      0.00000000	      0.00000000
     42.28114286	     -5.50172644	     -5.31239652	     -5.38064256	      1.05031315	      0.93402527	      0.45187404	     38.94780125	     -3.12737676	     -8.46907379	     55.29944506	     55.29944506	     -1.32993862	    -17.67185869	      4.22889670	      8.76712266	     -5.22573393	     -6.15675016	     18.86518699	     18.86518699	     16.59485909	    -11.72109910	      3.38372914	    -12.84735978	      7.96469910	      3.45422918	      1.80930039	    -15.27039491	    -17.34135455	     36.64087473	     46.28290502	      0.00000000	      0.00000000	     14.71799258	    -20.87200737	     -0.73006431	    101.53956556	     48.02599426	      0.00000000	      0.00000000
     42.29300000	     -5.52556159	     -5.43456226	     -5.48850257	      1.04958455	      0.93388623	      0.45256624	     39.02782531	     -2.51641275	     -8.78931034	     51.50848380	     51.50848380	     -0.90680811	    -17.06249242	      3.84188669	      8.03868126	     -5.37960391	     -6.40049067	     18.51532982	     18.51532982	     16.82059144	    -11.37752654	      3.06359110	    -12.91522305	      8.05315869	      3.36651674	      1.48259302	    -14.90613187	    -16.75949743	     34.13800417	     46.33977947	      0.00000000	      0.00000000	     16.24829624	    -20.84343565	     -1.10625042	    102.88493651	     48.10327990	      0.00000000	      0.00000000
     42.30485714	     -5.59094792	     -5.55352491	     -5.54584745	      1.04900769	      0.93354291	      0.45336410	     38.86015636	     -1.92057233	     -9.09414698	     47.26748490	     47.26748490	     -0.94805434	    -16.09181248	      2.11582812	      7.38967157	     -5.54682688	     -6.63906014	     18.23121855	     18.23121855	     16.99359876	    -11.05896578	      2.53765043	    -12.84897423	      8.15505140	      2.85337953	      1.74121198	    -14.45361686	    -15.67383866	     30.92903281	     46.39425162	      0.00000000	      0.00000000	     17.44284698	    -21.10549550	     -1.44524348	    103.91077397	     48.19682465	      0.00000000	      0.00000000
     42.31671429	     -5.64086242	     -5.61099054	     -5.52554603	      1.04860767	      0.93308636	      0.45415342	     38.49493709	     -1.40258358	     -9.31437571	     42.85455728	     42.85455728	     -0.41032915	    -14.29088776	      2.07719172	      6.73417696	     -5.62284030	     -6.75184748	     17.95600237	     17.95600237	     17.26432304	    -10.75780826	      2.32432432	    -12.86057260	      8.19715418	      2.74092816	      0.89542338	    -14.01482539	    -15.42622343	     30.18734671	     46.39952872	      0.00000000	      0.00000000	     18.82867424	    -21.02265344	     -1.62449778	    104.91639523	     48.23916281	      0.00000000	      0.00000000
     42.32857143	     -5.66641483	     -5.60933121	     -5.47360380	      1.04845689	      0.93245196	      0.45505078	     37.81136565	     -0.96398808	     -9.53199422	     38.08448174	     38.08448174	     -0.54875955	    -12.18189928	      0.19633352	      6.02883070	     -5.68848088	     -7.12947306	     17.65932285	     17.65932285	     17.47769370	    -10.08162838	      1.63346638	    -12.80209994	      8.14044426	      2.77087800	      0.37571581	    -13.63503434	    -14.22756763	     28.22552567	     46.39330314	      0.00000000	      0.00000000	     20.41149264	    -20.98005804	     -1.08228916	    105.57497134	     48.27051706	      0.00000000	      0.00000000
     42.34042857	     -5.66311870	     -5.61077823	     -5.35958990	      1.04852196	      0.93171727	      0.45601070	     36.93580670	     -0.53575943	     -9.74012901	     33.33764438	     33.33764438	     -0.08386681	     -9.49182945	      0.46139240	      5.31806205	     -5.71308079	     -7.23535868	     17.41960879	     17.41960879	     17.75407330	     -9.80257952	      1.40119356	    -12.77724064	      8.11131586	      2.56743844	     -0.45446690	    -13.14018604	    -14.02529656	     27.84288613	     46.38681189	      0.00000000	      0.00000000	     21.54031415	    -20.88424964	     -1.12236960	    106.39044569	     48.30009064	      0.00000000	      0.00000000
     42.35228571	     -5.56175128	     -5.55902549	     -5.14364778	      1.04889084	      0.93090876	      0.45681123	     35.79562538	     -0.25993052	    -10.04053834	     28.66932341	     28.66932341	      0.26345753	     -6.37460862	      0.99063007	      4.49934713	     -5.67258432	     -7.32083992	     17.19038783	     17.19038783	     18.09233604	     -9.34206217	      1.04123010	    -12.77262830	      8.12904139	      2.45187034	     -1.29610655	    -12.68876866	    -13.78341068	     27.40961688	     46.37975833	      0.00000000	      0.00000000	     22.60622511	    -20.74972889	     -0.86753931	    107.07277607	     48.31270689	      0.00000000	      0.00000000
     42.36414286	     -5.61504876	     -5.48168973	     -4.95046910	      1.04929095	      0.92965510	      0.45794517	     34.79558235	      0.06591107	    -10.19817086	     24.34100953	     24.34100953	      0.44161869	     -3.63974359	      1.89215702	      3.87278824	     -5.64257451	     -7.37548263	     17.00505368	     17.00505368	     18.39789809	     -8.96804591	      0.69628751	    -12.64539262	      7.97401184	      2.17918869	     -2.06691056	    -12.18067873	    -13.59907622	     27.13084749	     46.37040417	      0.00000000	      0.00000000	     23.61903793	    -20.70489806	     -0.58388684	    107.56973949	     48.31534427	      0.00000000	      0.00000000
     42.37600000	     -5.47027888	     -5.31790462	     -4.70079243	      1.05010935	      0.92841792	      0.45893413	     33.66641012	      0.08808750	    -10.88316707	     20.77769034	     20.77769034	      1.18595772	     -0.12728802	      3.85003746	      2.98670684	     -5.53369674	     -7.64636313	     16.78229491	     16.78229491	     18.71918136	     -8.21566109	      0.03985026	    -12.64404109	      7.77032903	      2.29605551	     -3.05885859	    -11.81348067	    -13.27277612	     26.97851997	     46.34545861	      0.00000000	      0.00000000	     24.79826107	    -20.53799558	      0.42010900	    107.82694636	     48.28353113	      0.00000000	      0.00000000
     42.38785714	     -5.48251536	     -5.20944046	     -4.44186111	      1.05092116	      0.92687439	      0.46011795	     32.65574632	      0.34891648	    -10.94232012	     17.56827089	     17.56827089	      1.26881717	      1.64782255	      5.03962325	      2.38229853	     -5.47866664	     -7.57366836	     16.75846353	     16.75846353	     19.04521352	     -8.03121310	     -0.26255925	    -12.46229684	      7.68669172	      2.06217778	     -3.64506064	    -11.38537990	    -13.17918628	     26.90596651	     46.33582086	      0.00000000	      0.00000000	     25.40443163	    -20.46417833	      0.71653644	    108.10851437	     48.27939389	      0.00000000	      0.00000000
     42.39971429	     -5.33552975	     -5.15638948	     -4.17681596	      1.05202239	      0.92547645	      0.46132074	     31.79878548	      0.40434845	    -11.80016236	     15.72913477	     15.72913477	      2.65261680	      4.18304825	      9.17854928	      1.55496641	     -5.54348145	     -7.82969933	     16.71489308	     16.71489308	     19.40395000	     -7.25479621	     -1.11133163	    -12.43689086	      7.63197600	      2.51533710	     -4.90300305	    -11.19167979	    -12.95583824	     27.53793000	     46.28847128	      0.00000000	      0.00000000	     26.42906465	    -20.20427792	      2.37348864	    107.75559958	     48.22205200	      0.00000000	      0.00000000
